<svg width="18" height="22" viewBox="0 0 18 22" fill="none" xmlns="http://www.w3.org/2000/svg">
<path d="M5.16004 21C0.980037 21 0.140037 18.47 1.50004 15.39L5.75004 5.74H5.45004C4.80004 5.74 4.20004 5.48 3.77004 5.05C3.33004 4.62 3.07004 4.02 3.07004 3.37C3.07004 2.07 4.13004 1 5.44004 1H12.55C13.21 1 13.8 1.27 14.23 1.7C14.79 2.26 15.07 3.08 14.86 3.95C14.59 5.03 13.55 5.74 12.44 5.74H12.28L16.5 15.4C17.85 18.48 16.97 21 12.83 21H5.16004Z" stroke="#444444" stroke-width="1.5" stroke-linecap="round" stroke-linejoin="round"/>
</svg>

