<svg width="39" height="28" viewBox="0 0 39 28" fill="none" xmlns="http://www.w3.org/2000/svg">
<path d="M2.59139 27.2242H35.9167C37.345 27.2242 38.5029 26.0661 38.5029 24.638V2.91384C38.5029 1.48553 37.345 0.327637 35.9167 0.327637H31.0029C29.5746 0.327637 28.418 1.49593 28.415 2.92424C28.387 16.4016 27.8985 15.9968 19.3726 16.0944C17.9443 16.1108 16.7788 14.9456 16.7788 13.5173V11.2024C16.7788 9.5831 15.2683 8.31689 13.8211 9.0432C10.9317 10.4933 9.98033 12.9819 9.56529 15.3659C9.34066 16.6559 8.2801 17.6552 6.9706 17.6552C6.29581 17.6552 5.64864 17.9233 5.17149 18.4005L0.762666 22.809C-0.866551 24.4383 0.287327 27.2242 2.59139 27.2242Z" fill="url(#paint0_linear_1102_784)"/>
<defs>
<linearGradient id="paint0_linear_1102_784" x1="24.2788" y1="-31.9999" x2="24.2788" y2="27.2242" gradientUnits="userSpaceOnUse">
<stop stop-color="#1BA319"/>
<stop offset="1" stop-color="#0DB817"/>
</linearGradient>
</defs>
</svg>
