<svg width="39" height="27" viewBox="0 0 39 27" fill="none" xmlns="http://www.w3.org/2000/svg">
<path d="M35.9662 0H2.64089C1.21253 0 0.0546875 1.15789 0.0546875 2.58621V24.3103C0.0546875 25.7387 1.21253 26.8966 2.64089 26.8966H7.55469C8.983 26.8966 10.1396 25.7283 10.1425 24.2999C10.1706 10.8226 10.6591 11.2273 19.185 11.1298C20.6132 11.1134 21.7788 12.2786 21.7788 13.7069V16.0218C21.7788 17.6411 23.2892 18.9073 24.7365 18.181C27.6259 16.7309 28.5772 14.2422 28.9923 11.8583C29.2169 10.5683 30.2775 9.56897 31.587 9.56897C32.2618 9.56897 32.9089 9.30088 33.3861 8.82378L37.7949 4.41493C39.4241 2.78571 38.2702 0 35.9662 0Z" fill="url(#paint0_linear_1102_783)"/>
<defs>
<linearGradient id="paint0_linear_1102_783" x1="14.2788" y1="0" x2="14.2788" y2="59.2241" gradientUnits="userSpaceOnUse">
<stop stop-color="#1BA319"/>
<stop offset="1" stop-color="#0DB817"/>
</linearGradient>
</defs>
</svg>
