<svg width="99" height="60" viewBox="0 0 99 60" fill="none" xmlns="http://www.w3.org/2000/svg">
<path d="M55.8105 13.9915C57.8277 13.9915 59.3536 14.7932 60.388 16.3966C61.4225 18.0001 61.9398 20.0173 61.9398 22.4484C61.9398 24.8794 61.3361 27.0949 60.1294 29.0949C58.9398 31.0776 57.5603 32.069 55.9915 32.069C54.8882 32.069 54.0777 31.4484 53.5605 30.207C53.0432 28.9656 52.707 27.1983 52.5518 24.9053C51.8277 25.9225 51.0001 27.0777 50.0691 28.3708C48.276 30.8535 47.0174 32.0949 46.2932 32.0949C46.0174 32.0949 45.6984 31.8708 45.3363 31.4225C44.9742 30.9742 44.7932 30.4139 44.7932 29.7415C44.7932 29.0518 45.026 26.9225 45.4915 23.3535C45.957 19.7673 46.1898 16.9742 46.1898 14.9742C46.1898 14.3363 46.3794 14.0173 46.7587 14.0173C47.138 14.0173 47.5777 14.2414 48.0777 14.6897C48.5949 15.138 48.8536 15.5518 48.8536 15.9311C48.8536 16.2932 48.5604 18.1122 47.9742 21.388C47.4053 24.6639 47.0518 27.2328 46.9139 29.0949C47.9656 27.3191 49.1467 25.6811 50.457 24.1811C51.7848 22.6639 52.7329 21.9052 53.3018 21.9052C53.8879 21.9052 54.2934 23.1984 54.5174 25.7846C54.6037 26.7501 54.7672 27.638 55.0087 28.4484C55.2674 29.2587 55.6124 29.6639 56.0432 29.6639C57.0089 29.6639 57.8448 28.888 58.5518 27.3363C59.276 25.7673 59.638 24.0346 59.638 22.138C59.638 20.0345 59.1725 18.4139 58.2415 17.2759C57.7589 16.6725 57.2241 16.3708 56.638 16.3708C56.0691 16.3708 55.5777 16.1725 55.1639 15.7759C54.7672 15.3794 54.5691 15.0346 54.5691 14.7415C54.5691 14.2414 54.9829 13.9915 55.8105 13.9915ZM74.2817 23.6639C74.2817 24.5777 73.782 25.3277 72.7817 25.9139C71.7989 26.4828 70.6786 26.7673 69.4196 26.7673C68.1782 26.7673 67.0491 26.6294 66.0317 26.3535C65.7906 27.1122 65.6696 27.7932 65.6696 28.3966C65.6696 28.9828 65.8506 29.4397 66.2127 29.7673C66.5924 30.0949 67.2043 30.2587 68.0489 30.2587C68.9111 30.2587 69.7905 30.1122 70.6868 29.819C71.6008 29.5087 72.101 29.3535 72.1868 29.3535C72.6353 29.3535 72.8592 29.5259 72.8592 29.8708C72.8592 30.3363 72.3337 30.8449 71.2817 31.3966C70.2301 31.9311 69.2044 32.1984 68.2041 32.1984C66.8592 32.1984 65.7648 31.8018 64.9196 31.0087C64.0749 30.1983 63.6523 29.1811 63.6523 27.957C63.6523 26.7328 63.9803 25.457 64.6351 24.1294C65.2905 22.7846 66.1351 21.6553 67.1696 20.7415C68.2041 19.8276 69.2303 19.3708 70.2472 19.3708C71.2646 19.3708 72.1868 19.8535 73.0144 20.819C73.8596 21.7846 74.2817 22.7328 74.2817 23.6639ZM70.3765 21.4139C69.7387 21.4139 69.0751 21.7501 68.3851 22.4225C67.6956 23.0777 67.1096 23.8966 66.6265 24.8794C67.3165 25.0346 68.1006 25.1121 68.9799 25.1121C69.8592 25.1121 70.6268 24.9742 71.2817 24.6984C71.937 24.4052 72.2644 24.0259 72.2644 23.5604C72.2644 23.0949 72.0492 22.6207 71.6179 22.138C71.2041 21.6553 70.7903 21.4139 70.3765 21.4139Z" fill="white"/>
<path d="M55.0344 47.7415C55.0344 49.1553 54.3967 50.3449 53.1206 51.3105C51.8446 52.2586 50.3793 52.7329 48.7241 52.7329C47.0861 52.7329 45.7327 52.3103 44.6638 51.4656C43.5948 50.6035 43.0603 49.7932 43.0603 49.0346C43.0603 48.5174 43.2155 48.2587 43.5258 48.2587C43.8017 48.2587 44.3448 48.6725 45.1551 49.5001C45.4655 49.7932 45.8793 50.0691 46.3965 50.3277C46.931 50.5863 47.4914 50.7156 48.0775 50.7156C49.2844 50.7156 50.3534 50.4053 51.2844 49.7846C52.2325 49.1639 52.7069 48.4915 52.7069 47.7674C52.7069 47.3018 52.3965 46.707 51.7758 45.9829C51.1551 45.2587 50.4655 44.5777 49.7069 43.9398C48.9655 43.2846 48.2844 42.5863 47.6638 41.8449C47.0431 41.1036 46.7327 40.5173 46.7327 40.0863C46.7327 39.6553 46.8189 39.1984 46.9913 38.7156C47.1637 38.2329 47.3534 37.8794 47.5603 37.6553C48.2327 36.9139 49.2758 36.2329 50.6896 35.6122C52.1208 34.9915 53.3188 34.6812 54.2844 34.6812C54.7846 34.6812 55.2067 34.845 55.5517 35.1725C55.8967 35.5001 56.0689 35.8449 56.0689 36.207C56.0689 36.3794 55.8879 36.5174 55.5258 36.6208C55.1638 36.7243 54.6119 36.8622 53.8706 37.0346C53.1465 37.1898 52.5 37.3794 51.931 37.6036C49.9483 38.3622 48.9569 39.0949 48.9569 39.8018C48.9569 40.1811 49.9655 41.2415 51.9827 42.9829C52.7586 43.6553 53.4569 44.4398 54.0775 45.3363C54.7153 46.2156 55.0344 47.0174 55.0344 47.7415ZM67.8688 42.8018L67.6877 47.6639C67.6877 49.0087 67.7477 49.9829 67.8688 50.5863C68.61 49.8105 69.2477 48.9053 69.7825 47.8708C70.3339 46.8191 70.7394 45.8449 70.9981 44.9484C71.2738 44.0519 71.5065 43.2156 71.6963 42.4398C71.9032 41.6467 72.0925 41.0174 72.2653 40.5518C72.4375 40.0863 72.6357 39.8536 72.8601 39.8536C73.1875 39.8536 73.4808 39.9915 73.7394 40.2674C73.9981 40.526 74.1274 40.8277 74.1274 41.1725C74.1274 42.0518 73.7306 43.5001 72.9377 45.5174C72.2653 47.3794 71.386 49.0863 70.2998 50.638C69.2136 52.1727 68.3684 52.9398 67.7653 52.9398C67.1617 52.9398 66.705 52.6036 66.3946 51.9312C66.1013 51.2587 65.9374 49.9743 65.9032 48.0777C65.8686 46.1639 65.8944 44.5087 65.9808 43.1122C64.7912 46.3536 63.7391 48.8018 62.8256 50.457C61.9117 52.1122 61.1875 52.9398 60.6532 52.9398C60.4117 52.9398 60.1531 52.8275 59.8774 52.6036C59.6188 52.3796 59.4119 52.0863 59.2567 51.7243C58.877 50.8104 58.5496 49.0691 58.2739 46.5001C58.0153 43.9139 57.886 42.0691 57.886 40.9656C57.886 40.2587 58.1012 39.9053 58.5325 39.9053C58.9117 39.9053 59.2567 40.1208 59.567 40.5518C59.8944 40.9829 60.0843 41.4139 60.136 41.8449C60.1877 42.2587 60.2306 43.4312 60.2653 45.3622C60.317 47.276 60.4805 48.9829 60.7567 50.4829C61.4632 49.2587 62.1703 47.7243 62.8774 45.8794C63.6015 44.0346 64.1875 42.5863 64.636 41.5346C65.1015 40.4829 65.5236 39.957 65.9032 39.957C66.4722 39.957 66.9377 40.2243 67.2998 40.7587C67.6789 41.276 67.8688 41.957 67.8688 42.8018ZM82.6836 44.457C82.6836 43.8708 82.5889 43.3191 82.3991 42.8018C82.2093 42.2674 81.9336 41.8794 81.5715 41.638C80.3819 41.9656 79.3562 42.8881 78.4939 44.4053C77.6493 45.9053 77.2267 47.3191 77.2267 48.6467C77.2267 49.9743 77.5541 50.8019 78.2094 51.1294C79.4508 50.888 80.5024 50.0432 81.3646 48.5949C82.2439 47.1294 82.6836 45.7501 82.6836 44.457ZM75.8819 44.6898C76.4855 43.3449 77.2696 42.2415 78.2353 41.3794C79.2181 40.5001 80.2179 40.0605 81.2353 40.0605C82.2698 40.0605 83.132 40.5001 83.8215 41.3794C84.511 42.2415 84.856 43.3019 84.856 44.5605C84.856 45.8018 84.5544 47.0777 83.9508 48.3881C83.3472 49.6812 82.5113 50.7587 81.4422 51.6208C80.3907 52.4655 79.2698 52.888 78.0801 52.888C77.2008 52.888 76.4679 52.4831 75.8819 51.6725C75.2958 50.8622 75.0025 49.8363 75.0025 48.5949C75.0025 47.3363 75.2958 46.0346 75.8819 44.6898ZM95.0488 39.9829C95.7905 39.9829 96.4282 40.457 96.9625 41.4053C97.5144 42.3535 97.7901 43.3363 97.7901 44.3536C97.7901 45.3535 97.4974 46.3622 96.9108 47.3794C96.3248 48.3794 95.6006 49.276 94.7384 50.0691C93.8767 50.8622 92.9198 51.526 91.8677 52.0605C90.8332 52.5777 89.8763 52.8363 88.997 52.8363C88.6525 52.8363 88.3246 52.7934 88.0143 52.707C87.9455 53.0003 87.825 53.5258 87.6522 54.2846C87.48 55.0434 87.3336 55.6724 87.2125 56.1725C87.092 56.6727 86.9539 57.207 86.7988 57.776C86.4884 58.9486 86.2127 59.5346 85.9712 59.5346C85.7301 59.5346 85.4798 59.3448 85.2212 58.9656C84.9455 58.6036 84.8074 58.2762 84.8074 57.9829C84.8074 57.6896 85.0836 56.4312 85.635 54.207C87.2901 47.5001 88.1177 42.9829 88.1177 40.6553C88.1177 40.138 88.3075 39.8794 88.6867 39.8794C88.997 39.8794 89.3679 40.1122 89.7988 40.5777C90.2472 41.026 90.4712 41.526 90.4712 42.0777C90.4712 42.3535 90.437 42.6553 90.3677 42.9829C91.9024 40.9829 93.4629 39.9829 95.0488 39.9829ZM88.7384 50.8191C89.6524 50.8191 90.6351 50.5087 91.6867 49.888C92.7558 49.2674 93.661 48.4484 94.4022 47.4312C95.161 46.3967 95.5401 45.3708 95.5401 44.3536C95.5401 42.9225 95.2039 42.207 94.5315 42.207C93.8591 42.207 92.9457 42.7846 91.7901 43.9398C90.6522 45.0949 89.747 46.5949 89.0746 48.4398L88.4798 50.8191H88.7384Z" fill="white"/>
<path d="M26.5799 31.5962C26.4647 29.8504 25.8471 28.4242 22.5353 27.5168C22.0462 27.3827 21.0918 28.3331 21.4503 28.6917L25.0862 32.3275C25.412 32.6534 26.6103 32.056 26.5799 31.5962Z" fill="url(#paint0_linear_1106_1039)"/>
<path d="M45.9662 0H12.6409C11.2125 0 10.0547 1.15789 10.0547 2.58621V24.3103C10.0547 25.7387 11.2125 26.8966 12.6409 26.8966H17.5547C18.983 26.8966 20.1396 25.7283 20.1425 24.2999C20.1706 10.8226 20.6591 11.2273 29.185 11.1298C30.6132 11.1134 31.7788 12.2786 31.7788 13.7069V16.0218C31.7788 17.6411 33.2892 18.9073 34.7365 18.181C37.6259 16.7309 38.5772 14.2422 38.9923 11.8583C39.2169 10.5683 40.2775 9.56896 41.587 9.56896C42.2618 9.56896 42.9089 9.30088 43.3861 8.82378L47.7949 4.41493C49.4241 2.78571 48.2702 0 45.9662 0Z" fill="url(#paint1_linear_1106_1039)"/>
<path d="M2.59139 59.2242H35.9167C37.345 59.2242 38.5029 58.0661 38.5029 56.638V34.9138C38.5029 33.4855 37.345 32.3276 35.9167 32.3276H31.0029C29.5746 32.3276 28.418 33.4959 28.415 34.9242C28.387 48.4016 27.8985 47.9968 19.3726 48.0944C17.9443 48.1108 16.7788 46.9456 16.7788 45.5173V43.2024C16.7788 41.5831 15.2683 40.3169 13.8211 41.0432C10.9317 42.4933 9.98033 44.9819 9.56529 47.3659C9.34066 48.6559 8.2801 49.6552 6.9706 49.6552C6.29581 49.6552 5.64864 49.9233 5.17149 50.4005L0.762666 54.809C-0.866551 56.4383 0.287327 59.2242 2.59139 59.2242Z" fill="url(#paint2_linear_1106_1039)"/>
<defs>
<linearGradient id="paint0_linear_1106_1039" x1="24.2788" y1="-7.35992e-05" x2="24.2788" y2="59.2241" gradientUnits="userSpaceOnUse">
<stop stop-color="#1BA319"/>
<stop offset="1" stop-color="#0DB817"/>
</linearGradient>
<linearGradient id="paint1_linear_1106_1039" x1="24.2788" y1="0" x2="24.2788" y2="59.2241" gradientUnits="userSpaceOnUse">
<stop stop-color="#1BA319"/>
<stop offset="1" stop-color="#0DB817"/>
</linearGradient>
<linearGradient id="paint2_linear_1106_1039" x1="24.2788" y1="5.11894e-05" x2="24.2788" y2="59.2242" gradientUnits="userSpaceOnUse">
<stop stop-color="#1BA319"/>
<stop offset="1" stop-color="#0DB817"/>
</linearGradient>
</defs>
</svg>
